# xmcd
#
# Track frame offsets:
#	150
#	11926
#	22777
#	34608
#	46913
#	57696
#	70265
#	79947
#	90038
#	99963
#	112274
#	121822
#	131995
#	143073
#	154226
#	165099
#	177014
#	188825
#	199024
#	210612
#	219949
#	231363
#	241913
#	251062
#	262121
#	272990
#	283451
#	294059
#	304415
#
# Disc length: 4203
#
# Revision: 3
# Processed by: cddbd v1.5.1PL0 Copyright (c) Steve Scherf et al.
# Submitted via: EasyCDDAExtractor 6.5.0.1
# Normalized: r2:DSETVAR1
#
DISCID=a410691d
DTITLE=Various Artist - Queen Of Country Music - 1949-1958 - Disc 4
DYEAR=1993
DGENRE=Country
TTITLE0=Kitty wells - What About You - 1958
TTITLE1=Kitty wells - May You Never Be Alone - 1958
TTITLE2=Kitty wells - If Teardrops Were Pennies - 1958
TTITLE3=Kitty wells - Touch And Go Heart - 1958
TTITLE4=Kitty wells - My Used To Be Darling - 1959
TTITLE5=Kitty wells - (I'll Always Be Your) Fraulein - 1957
TTITLE6=Kitty wells - Love Me To Pieces - 1958
TTITLE7=Kitty wells - What I Believe Dear (Is All Up To You) - 1957
TTITLE8=Kitty wells - I Can't Stop Loving You - 1958
TTITLE9=Kitty wells - Slowly Dying - 1987
TTITLE10=Kitty wells - I Can't Help Wondering - 1958
TTITLE11=Kitty wells - He's Lost His Love For Me - 1958
TTITLE12=Kitty wells - Jealousy - 1958
TTITLE13=Kitty wells - Mommy For A Day - 1958
TTITLE14=Kitty wells - The Hands You're Holding Now - 1958
TTITLE15=Kitty wells - Let Me Help You Forget - 1958
TTITLE16=Kitty wells - All The Time - 1958
TTITLE17=Kitty wells - Dust On The Bible - 1958
TTITLE18=Kitty wells - (I've Got My) One Way Ticket To The Sky - 1958
TTITLE19=Kitty wells - I Heard My Saviour Call - 1958
TTITLE20=Kitty wells - I Dreamed I Searched Heaven For You - 1958
TTITLE21=Kitty wells - The Great Speckled Bird - 1958
TTITLE22=Kitty wells - Matthew Twenty-Four - 1958
TTITLE23=Kitty wells - I Need The Prayers - 1958
TTITLE24=Kitty wells - My Loved Ones Are Waiting For Me - 1958
TTITLE25=Kitty wells - Lord, I'm Coming Home - 1958
TTITLE26=Kitty wells - He Will Set Your Fields On Fire - 1958
TTITLE27=Kitty wells - Lonesome Valley - 1958
TTITLE28=Kitty Wells - We Buried Her Beneath The Willows - 1958
EXTD=
EXTT0=
EXTT1=
EXTT2=
EXTT3=
EXTT4=
EXTT5=
EXTT6=
EXTT7=
EXTT8=
EXTT9=
EXTT10=
EXTT11=
EXTT12=
EXTT13=
EXTT14=
EXTT15=
EXTT16=
EXTT17=
EXTT18=
EXTT19=
EXTT20=
EXTT21=
EXTT22=
EXTT23=
EXTT24=
EXTT25=
EXTT26=
EXTT27=
EXTT28=
PLAYORDER=
